<mxfile host="app.diagrams.net" modified="2023-11-16T06:30:28.600Z" agent="Mozilla/5.0 (X11; Linux x86_64) AppleWebKit/537.36 (KHTML, like Gecko) Chrome/115.0.0.0 Safari/537.36" etag="8xm07sTpRHWAbb3NHLNN" version="21.8.2" type="device">
  <diagram name="Page-1" id="fBe38inIRxU-8wE3yGMQ">
    <mxGraphModel dx="1430" dy="803" grid="1" gridSize="10" guides="1" tooltips="1" connect="1" arrows="1" fold="1" page="1" pageScale="1" pageWidth="850" pageHeight="1100" math="0" shadow="0">
      <root>
        <mxCell id="0" />
        <mxCell id="1" parent="0" />
        <mxCell id="I97RSEOGLLJC8uO0pdep-12" value="" style="group" parent="1" vertex="1" connectable="0">
          <mxGeometry x="460" y="10" width="240" height="170" as="geometry" />
        </mxCell>
        <mxCell id="I97RSEOGLLJC8uO0pdep-9" value="" style="rounded=1;whiteSpace=wrap;html=1;" parent="I97RSEOGLLJC8uO0pdep-12" vertex="1">
          <mxGeometry width="240" height="170" as="geometry" />
        </mxCell>
        <mxCell id="I97RSEOGLLJC8uO0pdep-1" value="acquirer_db" style="shape=cylinder3;whiteSpace=wrap;html=1;boundedLbl=1;backgroundOutline=1;size=15;" parent="I97RSEOGLLJC8uO0pdep-12" vertex="1">
          <mxGeometry x="20" y="30" width="80" height="80" as="geometry" />
        </mxCell>
        <mxCell id="I97RSEOGLLJC8uO0pdep-2" value="registry_db" style="shape=cylinder3;whiteSpace=wrap;html=1;boundedLbl=1;backgroundOutline=1;size=15;" parent="I97RSEOGLLJC8uO0pdep-12" vertex="1">
          <mxGeometry x="140" y="30" width="80" height="80" as="geometry" />
        </mxCell>
        <mxCell id="I97RSEOGLLJC8uO0pdep-4" style="edgeStyle=orthogonalEdgeStyle;rounded=0;orthogonalLoop=1;jettySize=auto;html=1;exitX=0.5;exitY=1;exitDx=0;exitDy=0;exitPerimeter=0;" parent="I97RSEOGLLJC8uO0pdep-12" source="I97RSEOGLLJC8uO0pdep-1" target="I97RSEOGLLJC8uO0pdep-1" edge="1">
          <mxGeometry relative="1" as="geometry" />
        </mxCell>
        <mxCell id="I97RSEOGLLJC8uO0pdep-10" value="MySQL instance/service" style="text;html=1;strokeColor=none;fillColor=none;align=center;verticalAlign=middle;whiteSpace=wrap;rounded=0;" parent="I97RSEOGLLJC8uO0pdep-12" vertex="1">
          <mxGeometry x="65" y="130" width="110" height="30" as="geometry" />
        </mxCell>
        <mxCell id="I97RSEOGLLJC8uO0pdep-14" value="" style="group" parent="1" vertex="1" connectable="0">
          <mxGeometry x="365" y="250" width="120" height="126.43" as="geometry" />
        </mxCell>
        <mxCell id="I97RSEOGLLJC8uO0pdep-11" value="" style="image;aspect=fixed;perimeter=ellipsePerimeter;html=1;align=center;shadow=0;dashed=0;spacingTop=3;image=img/lib/active_directory/generic_server.svg;" parent="I97RSEOGLLJC8uO0pdep-14" vertex="1">
          <mxGeometry x="33" y="-10" width="54" height="96.43" as="geometry" />
        </mxCell>
        <mxCell id="I97RSEOGLLJC8uO0pdep-13" value="Acquirer-Backend" style="text;html=1;strokeColor=none;fillColor=none;align=center;verticalAlign=middle;whiteSpace=wrap;rounded=0;" parent="I97RSEOGLLJC8uO0pdep-14" vertex="1">
          <mxGeometry y="86.43" width="120" height="30" as="geometry" />
        </mxCell>
        <mxCell id="I97RSEOGLLJC8uO0pdep-18" value="" style="group" parent="1" vertex="1" connectable="0">
          <mxGeometry x="710" y="240" width="120" height="126.43" as="geometry" />
        </mxCell>
        <mxCell id="I97RSEOGLLJC8uO0pdep-15" value="" style="group" parent="I97RSEOGLLJC8uO0pdep-18" vertex="1" connectable="0">
          <mxGeometry width="120" height="126.43" as="geometry" />
        </mxCell>
        <mxCell id="I97RSEOGLLJC8uO0pdep-17" value="Registry-Oracle" style="text;html=1;strokeColor=none;fillColor=none;align=center;verticalAlign=middle;whiteSpace=wrap;rounded=0;" parent="I97RSEOGLLJC8uO0pdep-15" vertex="1">
          <mxGeometry y="96.43" width="120" height="30" as="geometry" />
        </mxCell>
        <mxCell id="I97RSEOGLLJC8uO0pdep-16" value="" style="image;aspect=fixed;perimeter=ellipsePerimeter;html=1;align=center;shadow=0;dashed=0;spacingTop=3;image=img/lib/active_directory/generic_server.svg;" parent="I97RSEOGLLJC8uO0pdep-18" vertex="1">
          <mxGeometry x="33" width="54" height="96.43" as="geometry" />
        </mxCell>
        <mxCell id="I97RSEOGLLJC8uO0pdep-19" value="" style="endArrow=classic;html=1;rounded=0;exitX=0.5;exitY=0;exitDx=0;exitDy=0;" parent="1" source="I97RSEOGLLJC8uO0pdep-11" target="I97RSEOGLLJC8uO0pdep-1" edge="1">
          <mxGeometry width="50" height="50" relative="1" as="geometry">
            <mxPoint x="530" y="420" as="sourcePoint" />
            <mxPoint x="580" y="370" as="targetPoint" />
          </mxGeometry>
        </mxCell>
        <mxCell id="I97RSEOGLLJC8uO0pdep-20" value="" style="endArrow=classic;html=1;rounded=0;exitX=0.37;exitY=-0.062;exitDx=0;exitDy=0;exitPerimeter=0;entryX=0.855;entryY=1;entryDx=0;entryDy=-4.35;entryPerimeter=0;" parent="1" source="I97RSEOGLLJC8uO0pdep-16" target="I97RSEOGLLJC8uO0pdep-2" edge="1">
          <mxGeometry width="50" height="50" relative="1" as="geometry">
            <mxPoint x="435" y="260" as="sourcePoint" />
            <mxPoint x="508" y="130" as="targetPoint" />
          </mxGeometry>
        </mxCell>
        <mxCell id="I97RSEOGLLJC8uO0pdep-22" value="" style="endArrow=classic;startArrow=classic;html=1;rounded=0;exitX=1;exitY=0.5;exitDx=0;exitDy=0;entryX=0;entryY=0.5;entryDx=0;entryDy=0;" parent="1" source="I97RSEOGLLJC8uO0pdep-11" target="I97RSEOGLLJC8uO0pdep-16" edge="1">
          <mxGeometry width="50" height="50" relative="1" as="geometry">
            <mxPoint x="530" y="420" as="sourcePoint" />
            <mxPoint x="580" y="370" as="targetPoint" />
          </mxGeometry>
        </mxCell>
        <mxCell id="I97RSEOGLLJC8uO0pdep-21" value="RabbitMQ" style="rounded=0;whiteSpace=wrap;html=1;" parent="1" vertex="1">
          <mxGeometry x="540" y="260" width="120" height="60" as="geometry" />
        </mxCell>
        <mxCell id="I97RSEOGLLJC8uO0pdep-26" value="" style="group" parent="1" vertex="1" connectable="0">
          <mxGeometry x="626" y="410" width="280" height="200" as="geometry" />
        </mxCell>
        <mxCell id="I97RSEOGLLJC8uO0pdep-24" value="Mojaloop ALS" style="ellipse;shape=cloud;whiteSpace=wrap;html=1;" parent="I97RSEOGLLJC8uO0pdep-26" vertex="1">
          <mxGeometry x="65" y="37.5" width="150" height="95" as="geometry" />
        </mxCell>
        <mxCell id="I97RSEOGLLJC8uO0pdep-27" value="" style="endArrow=classic;html=1;rounded=0;entryX=0.45;entryY=0.986;entryDx=0;entryDy=0;entryPerimeter=0;" parent="1" source="I97RSEOGLLJC8uO0pdep-24" target="I97RSEOGLLJC8uO0pdep-17" edge="1">
          <mxGeometry width="50" height="50" relative="1" as="geometry">
            <mxPoint x="765" y="460" as="sourcePoint" />
            <mxPoint x="770" y="500" as="targetPoint" />
          </mxGeometry>
        </mxCell>
        <mxCell id="4iGrIuf5TA_nNfV2-cQm-4" value="GET http://localhost:8888/participants/ALIAS/000001" style="edgeLabel;html=1;align=center;verticalAlign=middle;resizable=0;points=[];" vertex="1" connectable="0" parent="I97RSEOGLLJC8uO0pdep-27">
          <mxGeometry x="0.0179" y="1" relative="1" as="geometry">
            <mxPoint as="offset" />
          </mxGeometry>
        </mxCell>
        <mxCell id="I97RSEOGLLJC8uO0pdep-28" value="" style="image;aspect=fixed;perimeter=ellipsePerimeter;html=1;align=center;shadow=0;dashed=0;spacingTop=3;image=img/lib/active_directory/web_server.svg;" parent="1" vertex="1">
          <mxGeometry x="230" y="100" width="80" height="100" as="geometry" />
        </mxCell>
        <mxCell id="I97RSEOGLLJC8uO0pdep-29" value="Acquirer-Frontend" style="text;html=1;strokeColor=none;fillColor=none;align=center;verticalAlign=middle;whiteSpace=wrap;rounded=0;" parent="1" vertex="1">
          <mxGeometry x="210" y="200" width="130" height="30" as="geometry" />
        </mxCell>
        <mxCell id="I97RSEOGLLJC8uO0pdep-30" value="" style="image;aspect=fixed;perimeter=ellipsePerimeter;html=1;align=center;shadow=0;dashed=0;spacingTop=3;image=img/lib/active_directory/laptop_client.svg;" parent="1" vertex="1">
          <mxGeometry x="10" y="261.55" width="75" height="83.33" as="geometry" />
        </mxCell>
        <mxCell id="I97RSEOGLLJC8uO0pdep-32" value="" style="endArrow=classic;html=1;rounded=0;exitX=0.911;exitY=-0.08;exitDx=0;exitDy=0;exitPerimeter=0;entryX=-0.05;entryY=0.73;entryDx=0;entryDy=0;entryPerimeter=0;" parent="1" source="I97RSEOGLLJC8uO0pdep-30" target="I97RSEOGLLJC8uO0pdep-28" edge="1">
          <mxGeometry width="50" height="50" relative="1" as="geometry">
            <mxPoint x="290" y="500" as="sourcePoint" />
            <mxPoint x="340" y="450" as="targetPoint" />
          </mxGeometry>
        </mxCell>
        <mxCell id="I97RSEOGLLJC8uO0pdep-33" value="1. Fetch The WebPage Client" style="edgeLabel;html=1;align=center;verticalAlign=middle;resizable=0;points=[];" parent="I97RSEOGLLJC8uO0pdep-32" vertex="1" connectable="0">
          <mxGeometry x="-0.0966" y="-2" relative="1" as="geometry">
            <mxPoint as="offset" />
          </mxGeometry>
        </mxCell>
        <mxCell id="I97RSEOGLLJC8uO0pdep-34" value="" style="endArrow=classic;startArrow=classic;html=1;rounded=0;exitX=0.987;exitY=0.389;exitDx=0;exitDy=0;exitPerimeter=0;entryX=0.037;entryY=0.622;entryDx=0;entryDy=0;entryPerimeter=0;" parent="1" source="I97RSEOGLLJC8uO0pdep-30" target="I97RSEOGLLJC8uO0pdep-11" edge="1">
          <mxGeometry width="50" height="50" relative="1" as="geometry">
            <mxPoint x="290" y="500" as="sourcePoint" />
            <mxPoint x="340" y="450" as="targetPoint" />
          </mxGeometry>
        </mxCell>
        <mxCell id="I97RSEOGLLJC8uO0pdep-35" value="2. Consuming API" style="edgeLabel;html=1;align=center;verticalAlign=middle;resizable=0;points=[];" parent="I97RSEOGLLJC8uO0pdep-34" vertex="1" connectable="0">
          <mxGeometry x="0.0194" y="-4" relative="1" as="geometry">
            <mxPoint as="offset" />
          </mxGeometry>
        </mxCell>
        <mxCell id="4iGrIuf5TA_nNfV2-cQm-1" value="AWS S3/MinIO service" style="ellipse;shape=cloud;whiteSpace=wrap;html=1;" vertex="1" parent="1">
          <mxGeometry x="365" y="440" width="120" height="110" as="geometry" />
        </mxCell>
        <mxCell id="4iGrIuf5TA_nNfV2-cQm-2" value="" style="endArrow=classic;html=1;rounded=0;exitX=0.467;exitY=1.076;exitDx=0;exitDy=0;exitPerimeter=0;entryX=0.458;entryY=0.091;entryDx=0;entryDy=0;entryPerimeter=0;" edge="1" parent="1" source="I97RSEOGLLJC8uO0pdep-13" target="4iGrIuf5TA_nNfV2-cQm-1">
          <mxGeometry width="50" height="50" relative="1" as="geometry">
            <mxPoint x="580" y="330" as="sourcePoint" />
            <mxPoint x="630" y="280" as="targetPoint" />
          </mxGeometry>
        </mxCell>
        <mxCell id="4iGrIuf5TA_nNfV2-cQm-6" value="S3 Storage service for Merchant Documents and QRCode Images" style="shape=note;whiteSpace=wrap;html=1;backgroundOutline=1;darkOpacity=0.05;size=17;" vertex="1" parent="1">
          <mxGeometry x="350" y="550" width="160" height="50" as="geometry" />
        </mxCell>
        <mxCell id="4iGrIuf5TA_nNfV2-cQm-7" value="SendGrid Email Service" style="ellipse;shape=cloud;whiteSpace=wrap;html=1;" vertex="1" parent="1">
          <mxGeometry x="510" y="455" width="120" height="80" as="geometry" />
        </mxCell>
        <mxCell id="4iGrIuf5TA_nNfV2-cQm-8" value="" style="endArrow=classic;html=1;rounded=0;exitX=0.75;exitY=1;exitDx=0;exitDy=0;" edge="1" parent="1" source="I97RSEOGLLJC8uO0pdep-13" target="4iGrIuf5TA_nNfV2-cQm-7">
          <mxGeometry width="50" height="50" relative="1" as="geometry">
            <mxPoint x="480" y="540" as="sourcePoint" />
            <mxPoint x="530" y="490" as="targetPoint" />
          </mxGeometry>
        </mxCell>
        <mxCell id="4iGrIuf5TA_nNfV2-cQm-10" value="For sending email verification for added new users etc." style="shape=note;whiteSpace=wrap;html=1;backgroundOutline=1;darkOpacity=0.05;size=13;" vertex="1" parent="1">
          <mxGeometry x="530" y="550" width="150" height="50" as="geometry" />
        </mxCell>
      </root>
    </mxGraphModel>
  </diagram>
</mxfile>
